<svg width="515" height="512" viewBox="0 0 515 512" fill="none" xmlns="http://www.w3.org/2000/svg">
<rect y="37.0826" width="353.112" height="266.546" transform="rotate(-0.0134095 0 37.0826)" fill="#F2F2F2" fill-opacity="0.6"/>
<rect x="234" y="316.066" width="280" height="155.868" transform="rotate(-0.0134095 234 316.066)" fill="#FFECEC" fill-opacity="0.6"/>
<rect x="287" y="0.0368042" width="157.307" height="375.01" transform="rotate(-0.0134095 287 0.0368042)" fill="#FFFFEC" fill-opacity="0.6"/>
<circle cx="152.5" cy="395.5" r="116.5" fill="#ECFFF0" fill-opacity="0.6"/>
<path d="M76.7375 230.721H253.839V230.725H275.723C263.636 230.725 253.259 220.927 252.544 208.841L249.033 149.528H50.0527L53.5631 208.841C54.2787 220.929 64.6505 230.721 76.7375 230.721Z" fill="#406FBF"/>
<path d="M98.6202 230.721H142.383V230.717H98.6202V230.721Z" fill="#A4C3E9"/>
<path d="M76.7375 230.721C64.6505 230.721 54.2787 220.929 53.5631 208.841L50.0527 149.528H93.815L97.3254 208.837C98.0412 220.924 88.8235 230.721 76.7375 230.721" fill="#A4C3E9"/>
<path d="M290.463 110.111V110.115H113.361C101.275 110.115 92.062 119.907 92.7771 131.993L97.3255 208.837C98.0412 220.924 88.8235 230.721 76.7375 230.721H98.6203V230.717H275.723C287.808 230.717 297.021 220.925 296.305 208.839L296.799 217.156L291.757 131.993C291.043 119.908 300.26 110.111 312.345 110.111H290.463Z" fill="#406FBF"/>
<path d="M312.347 110.115H135.245V110.111H113.361C125.447 110.111 135.825 119.908 136.54 131.993L153.637 420.869H352.617L335.52 131.993C334.804 119.907 324.433 110.115 312.347 110.115Z" fill="#406FBF"/>
<path d="M352.617 420.869H153.637L136.54 131.993C135.825 119.908 125.447 110.111 113.361 110.111H135.245V110.115H312.347C324.433 110.115 334.804 119.907 335.52 131.993L352.617 420.869Z" fill="#CFE0F5"/>
<path d="M170.721 187.956H198.947L197.275 159.724H169.049L170.721 187.956ZM203.551 192.297H166.631L164.445 155.384H201.365L203.551 192.297" fill="white"/>
<path d="M175.86 274.771H204.084L202.413 246.537H174.188L175.86 274.771ZM208.689 279.111H171.768L169.584 242.197H206.504L208.689 279.111" fill="white"/>
<path d="M180.997 361.584H209.223L207.551 333.352H179.325L180.997 361.584ZM213.827 365.924H176.907L174.721 329.012H211.641L213.827 365.924Z" fill="white"/>
<path d="M306.453 159.724H221.569V155.384H306.453V159.724Z" fill="white"/>
<path d="M297.445 176.011H222.532V171.669H297.445V176.011Z" fill="white"/>
<path d="M308.381 192.297H223.497V187.956H308.381V192.297Z" fill="white"/>
<path d="M311.591 246.537H226.707V242.197H311.591V246.537Z" fill="white"/>
<path d="M277.493 262.824H227.671V258.484H277.493V262.824Z" fill="white"/>
<path d="M254.359 279.111H228.636V274.771H254.359V279.111Z" fill="white"/>
<path d="M313.52 279.111H271.077V274.771H313.52V279.111Z" fill="white"/>
<path d="M316.731 333.352H231.845V329.012H316.731V333.352Z" fill="white"/>
<path d="M317.695 349.639H232.808V345.297H317.695V349.639Z" fill="white"/>
<path d="M280.717 365.924H233.773V361.584H280.717V365.924Z" fill="white"/>
<path d="M187.513 183.616C186.591 183.616 185.701 183.264 185.029 182.628L175.963 174.068C174.509 172.696 174.444 170.407 175.815 168.955C177.188 167.5 179.477 167.437 180.928 168.807L187.361 174.88L201.827 159.507C203.193 158.052 205.483 157.98 206.94 159.351C208.395 160.719 208.465 163.008 207.095 164.463L190.147 182.477C189.489 183.176 188.581 183.585 187.62 183.613L187.513 183.616" fill="#406FBF"/>
<path d="M192.651 270.429C191.729 270.429 190.84 270.077 190.168 269.443L181.1 260.881C179.647 259.511 179.583 257.221 180.953 255.768C182.324 254.313 184.615 254.252 186.067 255.621L192.5 261.695L206.965 246.32C208.331 244.865 210.621 244.793 212.079 246.164C213.532 247.533 213.603 249.823 212.233 251.277L195.285 269.291C194.628 269.991 193.719 270.4 192.757 270.428L192.651 270.429" fill="#406FBF"/>
<path d="M197.789 357.243C196.867 357.243 195.977 356.891 195.305 356.256L186.239 347.696C184.785 346.324 184.72 344.035 186.091 342.583C187.463 341.128 189.752 341.065 191.204 342.435L197.639 348.508L212.103 333.133C213.469 331.68 215.759 331.608 217.216 332.977C218.671 334.347 218.741 336.636 217.371 338.091L200.423 356.104C199.765 356.804 198.857 357.213 197.896 357.241L197.789 357.243" fill="#406FBF"/>
<path d="M389.011 152.857L363.115 159.224L440.419 473.609L466.315 467.241L389.011 152.857Z" fill="#406FBF"/>
<path d="M458.429 469.181L462.672 468.138L458.429 469.181ZM464.028 467.804L466.315 467.241L464.028 467.804Z" fill="#C3C5C2"/>
<path d="M462.672 468.138L464.028 467.804L462.672 468.138Z" fill="#B1B3B1"/>
<path d="M458.429 469.181L437.083 382.368C437.273 380.375 437.441 378.404 437.585 376.453C439.701 376.221 441.775 375.969 443.805 375.703L466.315 467.241L464.028 467.804L462.672 468.138L458.429 469.18V469.181ZM412.115 280.827L381.125 154.796L389.011 152.857L414.44 256.277C413.723 262.804 412.903 271.079 412.115 280.827" fill="#3563B7"/>
<path d="M469.169 491.407L449.096 496.343C447.496 496.738 445.863 495.75 445.469 494.148L442.108 480.476C441.715 478.875 442.703 477.243 444.303 476.85L464.376 471.914C465.977 471.52 467.609 472.508 468.003 474.109L471.365 487.78C471.759 489.381 470.771 491.014 469.169 491.407" fill="#406FBF"/>
<path d="M448.385 496.429C447.037 496.429 445.805 495.51 445.469 494.148L442.108 480.476C442.049 480.239 442.021 480 442.021 479.765C442.021 478.419 442.94 477.186 444.303 476.85L464.376 471.914C464.615 471.855 464.853 471.827 465.088 471.827C466.436 471.827 467.668 472.745 468.003 474.109L471.365 487.78C471.424 488.017 471.452 488.256 471.452 488.491C471.452 489.839 470.533 491.072 469.169 491.407L449.096 496.343C448.859 496.401 448.62 496.429 448.385 496.429Z" fill="#B8D2EF"/>
<path d="M468.055 477.063L443.433 483.117C441.955 483.48 440.448 482.569 440.085 481.091L437.88 472.126C437.517 470.646 438.429 469.14 439.907 468.777L464.528 462.722C466.005 462.36 467.512 463.272 467.876 464.75L470.081 473.715C470.444 475.193 469.532 476.7 468.055 477.063Z" fill="#DADBD8"/>
<path d="M389.012 152.863L363.116 159.229L366.153 137.572L368.105 123.676L376.277 135.083L389.012 152.863" fill="#DADBD8"/>
<path d="M376.277 135.083L366.153 137.572L368.105 123.676L376.277 135.083Z" fill="#406FBF"/>
</svg>
